
        <svg version="1.0" xmlns="http://www.w3.org/2000/svg"
            width="53.000000pt" height="53.000000pt" viewBox="0 0 53.000000 53.000000"
            preserveAspectRatio="xMidYMid meet">

            <g transform="translate(0.000000,53.000000) scale(0.100000,-0.100000)"
                fill="#000000" stroke="none">
                <path d="M53 516 c-48 -22 -55 -60 -51 -274 l3 -184 28 -24 c28 -24 31 -24
231 -24 l203 0 27 26 26 27 0 203 c0 200 0 203 -24 231 l-24 28 -194 2 c-149
2 -200 0 -225 -11z m193 -153 l11 -23 21 25 c12 14 32 25 43 25 12 0 60 -21
106 -46 80 -44 84 -47 81 -77 -3 -28 -12 -37 -88 -79 -47 -26 -93 -47 -102
-48 -10 0 -25 11 -33 24 l-16 24 -24 -24 c-13 -13 -29 -24 -35 -24 -6 0 -51
20 -100 45 -70 35 -91 51 -96 71 -8 33 3 44 97 94 81 44 118 47 135 13z"/>
                <path d="M110 327 c-53 -30 -75 -48 -75 -62 0 -33 35 -27 115 18 53 30 75 49
75 62 0 33 -36 28 -115 -18z"/>
                <path d="M258 308 c-45 -61 -46 -64 -28 -80 11 -10 21 -18 23 -18 12 0 98 133
93 145 -11 31 -43 14 -88 -47z"/>
                <path d="M362 322 c-9 -20 -9 -28 1 -34 19 -12 33 -10 57 10 l22 18 -34 16
c-33 15 -34 15 -46 -10z"/>
                <path d="M189 281 c-19 -16 -20 -20 -8 -21 17 0 45 27 37 35 -3 3 -16 -3 -29
-14z"/>
                <path d="M389 260 c-92 -47 -109 -64 -86 -87 14 -15 22 -13 89 22 90 47 98 53
98 75 0 31 -23 29 -101 -10z"/>
                <path d="M319 259 c-10 -19 -9 -20 13 -8 31 16 31 16 14 22 -10 4 -20 -2 -27
-14z"/>
                <path d="M102 238 c-21 -11 -19 -13 38 -46 64 -35 90 -36 90 -3 0 14 -13 27
-40 41 -44 22 -55 23 -88 8z"/>
            </g>
        </svg>